<?xml version="1.0" encoding="utf-8"?>
<!-- Generator: Adobe Illustrator 23.0.5, SVG Export Plug-In . SVG Version: 6.00 Build 0)  -->
<svg version="1.1" xmlns="http://www.w3.org/2000/svg" xmlns:xlink="http://www.w3.org/1999/xlink" x="0px" y="0px"
	 viewBox="0 0 239.5 120" style="enable-background:new 0 0 239.5 120;" xml:space="preserve">
<style type="text/css">
	.st0{fill:#EE3C23;}
	.st1{fill:#F68D26;}
	.st2{fill:#7BD1F6;}
</style>
<g id="Layer_1">
</g>
<g id="Layer_2">
	<polygon class="st0" points="114,24.8 125.5,24.8 125.5,81.9 114,81.9 	"/>
	<path class="st0" d="M53.7,40.6l-3.2,4.7c0,0-0.7-0.7-1.2-1.3c-8.2-6.2-14.6-6.4-21.9-3.4C10.6,49.9,13.9,71.8,23.1,78
		c15.3,10.9,27.2-1.8,27.2-1.8l3.9,5.7h3.4l0-41.3H53.7z M36.4,70.9c-5.2,0-9.5-4.6-9.5-10.3c0-5.7,4.3-10.3,9.5-10.3
		s9.5,4.6,9.5,10.3C45.9,66.3,41.7,70.9,36.4,70.9z"/>
	<path class="st0" d="M102,40.6l-3.2,4.7c0,0-0.7-0.7-1.2-1.3c-8.2-6.2-14.6-6.4-21.9-3.4C58.9,49.9,62.2,71.8,71.4,78
		c15.3,10.9,27.2-1.8,27.2-1.8l3.9,5.7h3.3l0-41.3H102z M84.8,70.9c-5.2,0-9.5-4.6-9.5-10.3c0-5.7,4.3-10.3,9.5-10.3
		s9.5,4.6,9.5,10.3C94.3,66.3,90.1,70.9,84.8,70.9z"/>
	<path class="st1" d="M169.7,40.6l-3.2,4.7c0,0-0.7-0.7-1.2-1.3c-8.2-6.2-14.6-6.4-21.9-3.4c-16.8,9.2-13.5,31.2-4.3,37.4
		c15.3,10.9,27.2-1.8,27.2-1.8l3.9,5.7h3.3l0-41.3H169.7z M152.5,70.9c-5.2,0-9.5-4.6-9.5-10.3c0-5.7,4.3-10.3,9.5-10.3
		s9.5,4.6,9.5,10.3C162,66.3,157.8,70.9,152.5,70.9z"/>
	<path class="st2" d="M222.3,51.2c-14.3-23.5-33.1-5.8-33.1-5.8l-3.6-4.8l-3.8,0l0,56.2h11.5l0-17.3c0,0,0.5,0,1.1,0
		c6.5,6,18.3,1.5,19.5,0.3C226.3,72.5,224.9,57,222.3,51.2z M203.2,70.9c-5.2,0-9.5-4.6-9.5-10.3c0-5.7,4.3-10.3,9.5-10.3
		s9.5,4.6,9.5,10.3C212.7,66.3,208.5,70.9,203.2,70.9z"/>
</g>
</svg>
