<?xml version="1.0" encoding="utf-8"?>
<!-- Generator: Adobe Illustrator 25.3.0, SVG Export Plug-In . SVG Version: 6.00 Build 0)  -->
<svg version="1.1" xmlns="http://www.w3.org/2000/svg" xmlns:xlink="http://www.w3.org/1999/xlink" x="0px" y="0px"
	 viewBox="0 0 180 150" style="enable-background:new 0 0 180 150;" xml:space="preserve">
<style type="text/css">
	.st0{fill:#FBD356;}
	.st1{fill:#D95935;}
	.st2{fill:#694200;}
	.st3{fill:#FB8041;}
	.st4{fill:#D8ABF5;}
	.st5{fill:#FFFFFF;}
	.st6{fill:#50B3F9;}
	.st7{fill:#3776F7;}
	.st8{fill:#C5F1F0;}
	.st9{font-family:'Poppins-Regular';}
	.st10{font-size:44.1502px;}
	.st11{fill:#FF6F59;}
	.st12{fill:#61D065;}
	.st13{fill:#6FC4F1;}
	.st14{fill:none;stroke:#FFFFFF;stroke-width:2;stroke-miterlimit:10;}
	.st15{fill:#FFA75B;}
</style>
<g id="Layer_1">
	<g>
		<circle class="st0" cx="38.5" cy="23.6" r="17.5"/>
		<path class="st1" d="M27.2,27.9h22.1C49.3,27.9,37.2,47.7,27.2,27.9z"/>
		<circle class="st2" cx="30.4" cy="21" r="2.6"/>
		<circle class="st2" cx="44.9" cy="20.8" r="2.6"/>
		<path class="st3" d="M101.9,56H42.1c-3.3,0-5.9,2.7-5.9,5.9v39.4c0,3.3,2.7,5.9,5.9,5.9h6L47.9,123l17.8-15.7h36.2
			c3.3,0,5.9-2.7,5.9-5.9V62C107.8,58.7,105.2,56,101.9,56z"/>
		<path class="st4" d="M139.1,27.9h-52c-3.3,0-5.9,2.6-5.9,5.9v38.6c0,3.3,2.6,5.9,5.9,5.9h29l15.7,15.4V78.3h7.2
			c3.3,0,5.9-2.6,5.9-5.9V33.8C145,30.5,142.4,27.9,139.1,27.9z"/>
		<path class="st5" d="M129.5,50.3H97.1c-1.9,0-3.5-1.6-3.5-3.5v-0.3c0-1.9,1.6-3.5,3.5-3.5h32.4c1.9,0,3.5,1.6,3.5,3.5v0.3
			C133,48.7,131.4,50.3,129.5,50.3z"/>
		<path class="st5" d="M129.7,63.3h-11.8c-2,0-3.6-1.6-3.6-3.6v0c0-2,1.6-3.6,3.6-3.6h11.8c2,0,3.6,1.6,3.6,3.6v0
			C133.3,61.7,131.7,63.3,129.7,63.3z"/>
		<path class="st6" d="M158.8,96.1l-15.6,45.8c-0.7,2.1-3.5,2.7-5,1.1l-30.8-32.2c-1.6-1.6-0.8-4.3,1.3-5l46.4-13.5
			C157.5,91.5,159.6,93.8,158.8,96.1z"/>
		<polygon class="st7" points="120.5,124.4 138.9,112.5 127.1,131.3 		"/>
		<polygon class="st8" points="120.5,124.4 115.9,134.3 127.1,131.3 		"/>
		<text transform="matrix(1 0 0 1 59.5469 97.3145)" class="st5 st9 st10">?</text>
	</g>
</g>
<g id="Layer_2">
</g>
</svg>
