<?xml version="1.0" encoding="utf-8"?>
<!-- Generator: Adobe Illustrator 25.3.0, SVG Export Plug-In . SVG Version: 6.00 Build 0)  -->
<svg version="1.1" xmlns="http://www.w3.org/2000/svg" xmlns:xlink="http://www.w3.org/1999/xlink" x="0px" y="0px"
	 viewBox="0 0 180 150" style="enable-background:new 0 0 180 150;" xml:space="preserve">
<style type="text/css">
	.st0{fill:#FBD356;}
	.st1{fill:#D95935;}
	.st2{fill:#694200;}
	.st3{fill:#FB8041;}
	.st4{fill:#D8ABF5;}
	.st5{fill:#FFFFFF;}
	.st6{fill:#50B3F9;}
	.st7{fill:#3776F7;}
	.st8{fill:#C5F1F0;}
	.st9{fill:#FF6F59;}
	.st10{font-family:'Poppins-SemiBold';}
	.st11{font-size:13.0535px;}
	.st12{fill:#61D065;}
	.st13{fill:#6FC4F1;}
	.st14{fill:none;stroke:#FFFFFF;stroke-width:2;stroke-miterlimit:10;}
	.st15{fill:#FFA75B;}
</style>
<g id="Layer_1">
</g>
<g id="Layer_2">
	
		<image style="display:none;overflow:visible;" width="154" height="165" xlink:href="C:\Users\user\Downloads\WhatsApp Image 2021-11-30 at 11.31.08 AM (1).jpeg"  transform="matrix(0.9397 0 0 0.9397 14.3768 -16.741)">
	</image>
	
		<image style="display:none;overflow:visible;" width="154" height="165" xlink:href="C:\Users\user\Downloads\WhatsApp Image 2021-11-30 at 11.31.08 AM (1).jpeg"  transform="matrix(0.75 0 0 0.75 32.25 18.2426)">
	</image>
	<g>
		<g>
			<path class="st9" d="M78.6,68.7H49.2c-3,0-5.5-2.5-5.5-5.5V34.8c0-3,2.5-5.5,5.5-5.5h29.3c3,0,5.5,2.5,5.5,5.5v28.4
				C84.1,66.2,81.6,68.7,78.6,68.7z"/>
			<text transform="matrix(1 0 0 1 51.79 53.9619)" class="st5 st10 st11">PDF</text>
		</g>
		<g>
			<path class="st12" d="M130.8,68.9h-29.3c-3,0-5.5-2.5-5.5-5.5V35c0-3,2.5-5.5,5.5-5.5h29.3c3,0,5.5,2.5,5.5,5.5v28.4
				C136.3,66.4,133.8,68.9,130.8,68.9z"/>
			<circle class="st5" cx="116.1" cy="49.2" r="10.6"/>
			<path class="st12" d="M119.8,49.9l-6.7,3.5c-0.5,0.3-1.2-0.1-1.2-0.7v-6.9c0-0.6,0.6-1,1.2-0.7l6.7,3.5
				C120.4,48.8,120.4,49.6,119.8,49.9z"/>
		</g>
		<g>
			<path class="st13" d="M130.8,120.7h-29.3c-3,0-5.5-2.5-5.5-5.5V86.8c0-3,2.5-5.5,5.5-5.5h29.3c3,0,5.5,2.5,5.5,5.5v28.4
				C136.3,118.2,133.8,120.7,130.8,120.7z"/>
			<path class="st14" d="M122.9,95h-7.5v-0.4c0-1.2-1-2.3-2.3-2.3h-4.4c-1.2,0-2.3,1-2.3,2.3v14.6c0,0.2,0.2,0.4,0.4,0.4h3.1h3.2
				h10.1c1.4,0,2.6-1.1,2.6-2.6v-9.2C125.8,96.3,124.5,95,122.9,95z"/>
		</g>
		<g>
			<path class="st15" d="M78.6,120.7H49.2c-3,0-5.5-2.5-5.5-5.5V86.8c0-3,2.5-5.5,5.5-5.5h29.3c3,0,5.5,2.5,5.5,5.5v28.4
				C84.1,118.2,81.6,120.7,78.6,120.7z"/>
			<path class="st5" d="M73,97.8c-1.2-3.8-4.8-6.6-9.1-6.6h-0.2c-4.3,0-7.9,2.8-9.1,6.6c-0.3,0.8-0.4,1.7-0.4,2.6v4.5v0.8v3
				c0,1.1,1,2.1,2.1,2.1h2.8c1.2,0,2.1-0.9,2.1-2.1v-3.8c0-1.1-0.9-2.1-2.1-2.1h-2.8c-0.2,0-0.3,0-0.4,0V101c0-4.2,3.5-7.6,7.8-7.6
				s7.8,3.4,7.8,7.6v1.9c-0.1,0-0.2,0-0.3,0h-2.8c-1.2,0-2.1,0.9-2.1,2.1v3.8c0,1.1,0.9,2.1,2.1,2.1h2.8c1.2,0,2.1-0.9,2.1-2.1v-3
				v-0.8v-4.5C73.4,99.5,73.3,98.6,73,97.8z M56.5,103.9h2.7c0.6,0,1,0.4,1,1v3.8c0,0.6-0.5,1-1,1h-2.7c-0.6,0-1-0.4-1-1v-3.8
				C55.5,104.4,56,103.9,56.5,103.9z M72.3,108.7c0,0.6-0.5,1-1,1h-2.7c-0.6,0-1-0.4-1-1v-3.8c0-0.6,0.5-1,1-1h2.7c0.6,0,1,0.4,1,1
				V108.7z"/>
		</g>
	</g>
</g>
</svg>
